<svg width="10" height="9" fill="none" xmlns="http://www.w3.org/2000/svg"><path d="M10 3.39a3.286 3.286 0 01-.558.486c-.932.63-1.87 1.267-2.779 1.925-.469.346-1.05.77-1.657.77h-.012c-.608 0-1.188-.424-1.657-.77-.91-.664-1.847-1.294-2.773-1.925A3.12 3.12 0 010 3.391v4.43c0 .492.402.893.893.893h8.214A.895.895 0 0010 7.821v-4.43zm0-1.64a.9.9 0 00-.893-.893H.893C.296.857 0 1.326 0 1.873 0 2.38.564 3.01.96 3.279c.865.603 1.74 1.205 2.606 1.814.363.25.976.764 1.428.764h.012c.452 0 1.065-.513 1.428-.764.865-.609 1.741-1.211 2.612-1.814.49-.34.954-.904.954-1.529z" fill="#151515"/></svg>