<svg width="42" height="42" viewBox="0 0 42 42" fill="none" xmlns="http://www.w3.org/2000/svg">
<path d="M13.8571 1.71429C13.8571 1.3198 13.5373 1 13.1429 1H3C1.89543 1 1 1.89543 1 3V13.1429C1 13.5373 1.3198 13.8571 1.71429 13.8571V13.8571C2.10877 13.8571 2.42857 13.5373 2.42857 13.1429V4.42857C2.42857 3.324 3.324 2.42857 4.42857 2.42857H13.1429C13.5373 2.42857 13.8571 2.10877 13.8571 1.71429V1.71429Z" stroke="white" stroke-width="2"/>
<path d="M39.5714 13.1429C39.5714 13.5373 39.8912 13.8571 40.2857 13.8571V13.8571C40.6802 13.8571 41 13.5373 41 13.1429V3C41 1.89543 40.1046 1 39 1H28.8571C28.4626 1 28.1429 1.3198 28.1429 1.71429V1.71429C28.1429 2.10877 28.4626 2.42857 28.8571 2.42857H37.5714C38.676 2.42857 39.5714 3.324 39.5714 4.42857V13.1429Z" stroke="white" stroke-width="2"/>
<path d="M2.42857 28.8572C2.42857 28.4627 2.10877 28.1429 1.71429 28.1429V28.1429C1.3198 28.1429 1 28.4627 1 28.8572V39C1 40.1046 1.89543 41 3 41H13.1429C13.5373 41 13.8571 40.6802 13.8571 40.2857V40.2857C13.8571 39.8912 13.5373 39.5714 13.1429 39.5714H4.42857C3.324 39.5714 2.42857 38.676 2.42857 37.5714V28.8572Z" stroke="white" stroke-width="2"/>
<path d="M41 28.8572C41 28.4627 40.6802 28.1429 40.2857 28.1429V28.1429C39.8912 28.1429 39.5714 28.4627 39.5714 28.8572V37.5714C39.5714 38.676 38.676 39.5714 37.5714 39.5714H28.8571C28.4626 39.5714 28.1429 39.8912 28.1429 40.2857V40.2857C28.1429 40.6802 28.4626 41 28.8571 41H39C40.1046 41 41 40.1046 41 39V28.8572Z" stroke="white" stroke-width="2"/>
</svg>
