<svg width="42" height="42" fill="none" xmlns="http://www.w3.org/2000/svg"><path d="M13.857 1.714A.714.714 0 0013.143 1H3a2 2 0 00-2 2v10.143c0 .394.32.714.714.714v0c.395 0 .715-.32.715-.714V4.429a2 2 0 012-2h8.714c.394 0 .714-.32.714-.715v0zm25.714 11.429c0 .394.32.714.715.714v0c.394 0 .714-.32.714-.714V3a2 2 0 00-2-2H28.857a.714.714 0 00-.714.714v0c0 .395.32.715.714.715h8.714a2 2 0 012 2v8.714zM2.429 28.857a.714.714 0 00-.715-.714v0a.714.714 0 00-.714.714V39a2 2 0 002 2h10.143c.394 0 .714-.32.714-.714v0a.714.714 0 00-.714-.715H4.429a2 2 0 01-2-2v-8.714zm38.571 0a.714.714 0 00-.714-.714v0a.714.714 0 00-.715.714v8.714a2 2 0 01-2 2h-8.714a.714.714 0 00-.714.715v0c0 .394.32.714.714.714H39a2 2 0 002-2V28.857z" stroke="#fff" stroke-width="2"/></svg>