<svg width="14" height="9" fill="none" xmlns="http://www.w3.org/2000/svg"><path d="M13.336 3.938a7.501 7.501 0 00-2.742-2.72A7.46 7.46 0 006.75.189a7.46 7.46 0 00-3.844 1.03 7.502 7.502 0 00-2.742 2.72A1.01 1.01 0 000 4.5c0 .203.055.39.164.563A7.502 7.502 0 002.906 7.78 7.46 7.46 0 006.75 8.813a7.46 7.46 0 003.844-1.032 7.501 7.501 0 002.742-2.718c.11-.172.164-.36.164-.563 0-.203-.055-.39-.164-.563zM6.75 7.688a3.12 3.12 0 01-1.594-.422 3.502 3.502 0 01-1.172-1.172A3.117 3.117 0 013.563 4.5c0-.578.14-1.11.421-1.594a3.3 3.3 0 011.172-1.148 2.992 2.992 0 011.594-.446c.578 0 1.11.149 1.594.446.484.281.867.664 1.148 1.148.297.485.445 1.016.445 1.594a2.99 2.99 0 01-.445 1.594 3.3 3.3 0 01-1.148 1.172 3.117 3.117 0 01-1.594.421zM9.188 4.5c0 .672-.243 1.25-.727 1.734a2.329 2.329 0 01-1.711.704c-.672 0-1.25-.235-1.734-.704A2.407 2.407 0 014.312 4.5c0-.406.094-.79.282-1.148 0 .28.093.523.281.726.203.188.445.281.727.281a.954.954 0 00.703-.28.992.992 0 00.304-.727.917.917 0 00-.304-.704.917.917 0 00-.703-.304 2.44 2.44 0 011.148-.281c.672 0 1.242.242 1.71.726.485.469.727 1.04.727 1.711z" fill="#000"/></svg>